
        <svg xmlns="http://www.w3.org/2000/svg" xmlns:xlink="http://www.w3.org/1999/xlink" version="1.1" width="3160.157462599859" 
        height="1053.9143617995373" viewBox="0 -58.37739511764889 3160.157462599859 1053.9143617995373">
			
			<g transform="scale(8.007873129992989) translate(10, 10)">
				<defs id="SvgjsDefs3922"></defs><g id="SvgjsG3923" featureKey="nYIUkx-0" transform="matrix(1.6791613839275423,0,0,1.6791613839275423,-1.5481868808539676,-8.89337694073974)" fill="#9ab0a6"><path xmlns="http://www.w3.org/2000/svg" d="M41.192,46.642c-0.128,0-0.256-0.049-0.354-0.146l-9.192-9.192c-0.195-0.195-0.195-0.512,0-0.707s0.512-0.195,0.707,0  l8.839,8.839l4.243-4.243l-8.839-8.839c-0.195-0.195-0.195-0.512,0-0.707s0.512-0.195,0.707,0l9.192,9.192  c0.094,0.094,0.146,0.221,0.146,0.354s-0.053,0.26-0.146,0.354l-4.95,4.95C41.448,46.593,41.32,46.642,41.192,46.642z"></path><path xmlns="http://www.w3.org/2000/svg" d="M27.05,32.5c-0.128,0-0.256-0.049-0.354-0.146l-9.192-9.192c-0.195-0.195-0.195-0.512,0-0.707l4.95-4.95  c0.195-0.195,0.512-0.195,0.707,0l9.192,9.192c0.195,0.195,0.195,0.512,0,0.707s-0.512,0.195-0.707,0l-8.839-8.839l-4.243,4.243  l8.839,8.839c0.195,0.195,0.195,0.512,0,0.707C27.306,32.451,27.178,32.5,27.05,32.5z"></path><path xmlns="http://www.w3.org/2000/svg" d="M9.373,27.722c-0.896,0-1.791-0.341-2.472-1.022l-4.955-4.955c-0.661-0.661-1.024-1.539-1.024-2.473S1.285,17.46,1.946,16.8  L16.8,1.946c1.32-1.321,3.624-1.321,4.945,0L26.699,6.9c1.363,1.363,1.363,3.581,0,4.945l0,0L11.845,26.699  C11.164,27.381,10.268,27.722,9.373,27.722z M19.272,1.921c-0.667,0-1.293,0.26-1.765,0.731L2.653,17.507  c-0.472,0.472-0.731,1.098-0.731,1.765s0.26,1.294,0.731,1.766l4.955,4.955c0.974,0.973,2.558,0.973,3.531,0l14.854-14.854  c0.973-0.974,0.973-2.558,0-3.531l-4.955-4.955C20.566,2.181,19.939,1.921,19.272,1.921z M26.346,11.492h0.01H26.346z"></path><path xmlns="http://www.w3.org/2000/svg" d="M44.728,63.079c-0.934,0-1.812-0.364-2.472-1.024L37.301,57.1c-1.363-1.363-1.363-3.581,0-4.945l14.854-14.854  c1.364-1.364,3.582-1.362,4.944,0l4.955,4.955c1.363,1.364,1.363,3.582,0,4.945L47.2,62.054  C46.54,62.715,45.662,63.079,44.728,63.079z M54.627,37.278c-0.639,0-1.278,0.243-1.765,0.73L38.008,52.862  c-0.973,0.974-0.974,2.558,0,3.531l4.955,4.955c0.944,0.944,2.588,0.942,3.53,0l14.854-14.854c0.974-0.973,0.973-2.557,0-3.531  l-4.955-4.955C55.906,37.521,55.267,37.278,54.627,37.278z M61.701,46.847h0.01H61.701z"></path><path xmlns="http://www.w3.org/2000/svg" d="M7.958,11.994c-0.128,0-0.256-0.049-0.354-0.146L5.483,9.726c-0.195-0.195-0.195-0.512,0-0.707l3.536-3.536  c0.195-0.195,0.512-0.195,0.707,0l2.122,2.122c0.195,0.195,0.195,0.512,0,0.707l-3.536,3.536  C8.214,11.945,8.086,11.994,7.958,11.994z M6.544,9.373l1.415,1.415l2.829-2.829L9.373,6.544L6.544,9.373z"></path><path xmlns="http://www.w3.org/2000/svg" d="M54.627,58.663L54.627,58.663c-0.133,0-0.26-0.053-0.354-0.146l-2.121-2.122c-0.195-0.195-0.195-0.512,0-0.707l3.536-3.536  c0.094-0.094,0.221-0.146,0.354-0.146l0,0c0.133,0,0.26,0.053,0.354,0.146l2.121,2.122c0.195,0.195,0.195,0.512,0,0.707  l-3.536,3.536C54.887,58.61,54.76,58.663,54.627,58.663z M53.213,56.042l1.414,1.415l2.829-2.829l-1.414-1.415L53.213,56.042z"></path><path xmlns="http://www.w3.org/2000/svg" d="M15.736,24.599c-0.64,0-1.28-0.244-1.768-0.731c-0.195-0.195-0.195-0.512,0-0.707s0.512-0.195,0.707,0  c0.585,0.585,1.537,0.584,2.122,0l6.364-6.364c0.585-0.585,0.585-1.537,0-2.122c-0.195-0.195-0.195-0.512,0-0.707  s0.512-0.195,0.707,0c0.975,0.975,0.975,2.561,0,3.536l-6.364,6.364C17.017,24.355,16.377,24.599,15.736,24.599z"></path><path xmlns="http://www.w3.org/2000/svg" d="M40.485,50.178c-0.128,0-0.256-0.049-0.354-0.146c-0.975-0.975-0.975-2.561,0-3.536l6.364-6.364  c0.942-0.944,2.589-0.945,3.535,0c0.195,0.195,0.195,0.512,0,0.707s-0.512,0.195-0.707,0c-0.566-0.567-1.555-0.566-2.121,0  l-6.364,6.364c-0.585,0.585-0.585,1.537,0,2.122c0.195,0.195,0.195,0.512,0,0.707C40.741,50.129,40.613,50.178,40.485,50.178z"></path><path xmlns="http://www.w3.org/2000/svg" d="M22.808,46.642c-0.128,0-0.256-0.049-0.354-0.146l-4.95-4.95c-0.195-0.195-0.195-0.512,0-0.707l9.899-9.899  c0.195-0.195,0.512-0.195,0.707,0s0.195,0.512,0,0.707l-9.546,9.546l4.243,4.243l22.628-22.627l-4.243-4.243l-3.889,3.889  c-0.195,0.195-0.512,0.195-0.707,0s-0.195-0.512,0-0.707l4.242-4.243c0.188-0.188,0.52-0.188,0.707,0l4.95,4.95  c0.094,0.094,0.146,0.221,0.146,0.354s-0.053,0.26-0.146,0.354L23.161,46.496C23.063,46.593,22.936,46.642,22.808,46.642z"></path><path xmlns="http://www.w3.org/2000/svg" d="M54.628,27.722c-0.896,0-1.791-0.341-2.473-1.022L37.301,11.845l0,0c-1.363-1.364-1.363-3.582,0-4.945l4.955-4.955  c1.321-1.322,3.625-1.321,4.944,0L62.055,16.8c1.363,1.363,1.363,3.581,0,4.945L57.1,26.699  C56.418,27.381,55.522,27.722,54.628,27.722z M38.008,11.138l14.854,14.854c0.972,0.973,2.557,0.974,3.53,0l4.955-4.955  c0.973-0.974,0.974-2.558,0-3.531L46.493,2.653c-0.942-0.943-2.586-0.944-3.53,0l-4.955,4.955  C37.034,8.581,37.035,10.165,38.008,11.138L38.008,11.138z"></path><path xmlns="http://www.w3.org/2000/svg" d="M19.272,63.079c-0.934,0-1.812-0.364-2.472-1.024L1.946,47.2c-0.661-0.66-1.024-1.538-1.024-2.472s0.364-1.812,1.024-2.473  L6.9,37.301c1.363-1.363,3.582-1.363,4.945,0l14.854,14.854c1.363,1.364,1.363,3.582,0,4.945l-4.955,4.955  C21.084,62.715,20.206,63.079,19.272,63.079z M9.373,37.278c-0.639,0-1.278,0.244-1.765,0.73l-4.955,4.955  c-0.472,0.472-0.731,1.099-0.731,1.766s0.26,1.293,0.731,1.765l0,0l14.854,14.854c0.943,0.943,2.587,0.943,3.531,0l4.955-4.955  c0.973-0.973,0.973-2.557,0-3.531L11.138,38.008C10.651,37.521,10.012,37.278,9.373,37.278z"></path><path xmlns="http://www.w3.org/2000/svg" d="M56.042,11.994c-0.133,0-0.26-0.053-0.354-0.146l-3.536-3.536c-0.195-0.195-0.195-0.512,0-0.707l2.121-2.122  c0.188-0.188,0.52-0.188,0.707,0l3.536,3.536c0.195,0.195,0.195,0.512,0,0.707l-2.121,2.122  C56.302,11.941,56.175,11.994,56.042,11.994z M53.213,7.958l2.829,2.829l1.414-1.415l-2.829-2.829L53.213,7.958z"></path><path xmlns="http://www.w3.org/2000/svg" d="M9.373,58.663c-0.128,0-0.256-0.049-0.354-0.146l-3.536-3.536c-0.195-0.195-0.195-0.512,0-0.707l2.122-2.122  c0.195-0.195,0.512-0.195,0.707,0l3.536,3.536c0.195,0.195,0.195,0.512,0,0.707l-2.122,2.122C9.628,58.614,9.5,58.663,9.373,58.663z   M6.544,54.627l2.829,2.829l1.415-1.415l-2.829-2.829L6.544,54.627z"></path><path xmlns="http://www.w3.org/2000/svg" d="M48.264,24.601c-0.668,0-1.296-0.26-1.768-0.732l-6.364-6.364c-0.975-0.975-0.975-2.561,0-3.536  c0.195-0.195,0.512-0.195,0.707,0s0.195,0.512,0,0.707c-0.585,0.585-0.585,1.537,0,2.122l6.364,6.364  c0.566,0.566,1.555,0.567,2.121,0c0.195-0.195,0.512-0.195,0.707,0s0.195,0.512,0,0.707C49.559,24.34,48.931,24.601,48.264,24.601z"></path><path xmlns="http://www.w3.org/2000/svg" d="M23.515,50.178c-0.128,0-0.256-0.049-0.354-0.146c-0.195-0.195-0.195-0.512,0-0.707c0.585-0.585,0.585-1.537,0-2.122  l-6.364-6.364c-0.584-0.584-1.536-0.585-2.122,0c-0.195,0.195-0.512,0.195-0.707,0s-0.195-0.512,0-0.707  c0.975-0.975,2.562-0.975,3.536,0l6.364,6.364c0.975,0.975,0.975,2.561,0,3.536C23.771,50.129,23.643,50.178,23.515,50.178z"></path><path xmlns="http://www.w3.org/2000/svg" d="M31.293,28.257c-0.128,0-0.256-0.049-0.354-0.146c-0.195-0.195-0.195-0.512,0-0.707l3.535-3.536  c0.195-0.195,0.512-0.195,0.707,0s0.195,0.512,0,0.707l-3.535,3.536C31.549,28.208,31.421,28.257,31.293,28.257z"></path></g><g id="SvgjsG3924" featureKey="PXhRQw-0" transform="matrix(2.4771208229452566,0,0,2.4771208229452566,124.34301227408312,18.60146279795289)" fill="#374b43"><path d="M10.28 6.800000000000001 c0.14 0 0.22 0.16 0.14 0.28 l-3.14 4.34 l3.32 8.36 c0.04 0.1 -0.02 0.22 -0.16 0.22 l-2.7 0 c-0.06 0 -0.12 -0.04 -0.14 -0.12 l-2.08 -5.98 l-1.02 1.4 l0 4.52 c0 0.1 -0.08 0.18 -0.18 0.18 l-2.28 0 c-0.1 0 -0.16 -0.08 -0.16 -0.18 l0 -12.84 c0 -0.1 0.06 -0.18 0.16 -0.18 l2.28 0 c0.1 0 0.18 0.08 0.18 0.18 l0 4.14 l3.14 -4.24 c0.06 -0.08 0.08 -0.08 0.16 -0.08 l2.48 0 z M3.08 8 l0 10.78 c0 0.14 0.22 0.14 0.22 0 l0 -3.88 l2.5 -3.32 l2.8 7.24 c0.04 0.1 0.28 0.04 0.22 -0.12 l-2.84 -7.38 l2.6 -3.46 c0.1 -0.1 -0.08 -0.28 -0.2 -0.16 l-5.08 6.8 l0 -6.5 c0 -0.14 -0.22 -0.14 -0.22 0 z M18.96 6.98 c0 -0.1 0.08 -0.18 0.18 -0.18 l2.3 0 c0.1 0 0.18 0.08 0.18 0.18 l0 12.84 c0 0.1 -0.08 0.18 -0.18 0.18 l-2.22 0 c-0.08 0 -0.16 -0.04 -0.18 -0.1 l-2.92 -6.58 l0 6.5 c0 0.1 -0.08 0.18 -0.18 0.18 l-2.28 0 c-0.1 0 -0.16 -0.08 -0.16 -0.18 l0 -12.84 c0 -0.1 0.06 -0.18 0.16 -0.18 l2.36 0 c0.08 0 0.12 0.06 0.14 0.1 l2.8 6.46 l0 -6.38 z M20.4 18.8 l0 -10.8 c0 -0.14 -0.26 -0.18 -0.26 0 l0 10.28 l-5.22 -10.32 c-0.06 -0.08 -0.22 -0.08 -0.22 0.04 l0 10.78 c0 0.18 0.24 0.18 0.24 0 l0 -10.26 l5.2 10.3 c0.08 0.14 0.26 0.1 0.26 -0.02 z M34.06 8 l0 10.78 c0 0.14 0.24 0.18 0.24 0 l0 -5.38 l3.68 0 c0.2 0 0.2 -0.28 0 -0.28 l-3.68 0 l0 -4.96 l4.48 0 c0.14 0 0.18 -0.26 0 -0.26 l-4.6 0 c-0.06 0 -0.12 0.02 -0.12 0.1 z M35.32 20 l-2.3 0 c-0.1 0 -0.16 -0.08 -0.16 -0.18 l0 -12.84 c0 -0.1 0.06 -0.18 0.16 -0.18 l6.8 0 c0.1 0 0.18 0.08 0.18 0.18 l0 2.14 c0 0.1 -0.08 0.18 -0.18 0.18 l-4.32 0 l0 2.72 l3.36 0 c0.1 0 0.16 0.08 0.16 0.18 l0 2.18 c0 0.1 -0.06 0.18 -0.16 0.18 l-3.36 0 l0 5.26 c0 0.1 -0.08 0.18 -0.18 0.18 z M42.96 20 c-0.1 0 -0.16 -0.08 -0.16 -0.18 l0 -12.84 c0 -0.1 0.06 -0.18 0.16 -0.18 l2.28 0 c0.1 0 0.18 0.08 0.18 0.18 l0 12.84 c0 0.1 -0.08 0.18 -0.18 0.18 l-2.28 0 z M44 8 l0 10.78 c0 0.18 0.22 0.18 0.22 0 l0 -10.78 c0 -0.14 -0.22 -0.14 -0.22 0 z M51.16 9.3 l-2.84 0 c-0.1 0 -0.18 -0.08 -0.18 -0.18 l0 -2.14 c0 -0.1 0.08 -0.18 0.18 -0.18 l8.34 0 c0.1 0 0.18 0.08 0.18 0.18 l0 2.14 c0 0.1 -0.08 0.18 -0.18 0.18 l-2.84 0 l0 10.52 c0 0.1 -0.08 0.18 -0.18 0.18 l-2.3 0 c-0.1 0 -0.18 -0.08 -0.18 -0.18 l0 -10.52 z M55.44 7.9 l-6.04 0 c-0.14 0 -0.14 0.26 0 0.26 l2.96 0 l0 10.6 c0 0.14 0.26 0.14 0.26 0 l0 -10.6 l2.82 0 c0.2 0 0.18 -0.26 0 -0.26 z M65.1 6.98 c0 -0.1 0.08 -0.18 0.18 -0.18 l2.3 0 c0.1 0 0.18 0.08 0.18 0.18 l0 12.84 c0 0.1 -0.08 0.18 -0.18 0.18 l-2.22 0 c-0.08 0 -0.16 -0.04 -0.18 -0.1 l-2.92 -6.58 l0 6.5 c0 0.1 -0.08 0.18 -0.18 0.18 l-2.28 0 c-0.1 0 -0.16 -0.08 -0.16 -0.18 l0 -12.84 c0 -0.1 0.06 -0.18 0.16 -0.18 l2.36 0 c0.08 0 0.12 0.06 0.14 0.1 l2.8 6.46 l0 -6.38 z M66.53999999999999 18.8 l0 -10.8 c0 -0.14 -0.26 -0.18 -0.26 0 l0 10.28 l-5.22 -10.32 c-0.06 -0.08 -0.22 -0.08 -0.22 0.04 l0 10.78 c0 0.18 0.24 0.18 0.24 0 l0 -10.26 l5.2 10.3 c0.08 0.14 0.26 0.1 0.26 -0.02 z M71.68 20 c-0.1 0 -0.16 -0.08 -0.16 -0.18 l0 -12.84 c0 -0.1 0.06 -0.18 0.16 -0.18 l6.8 0 c0.1 0 0.18 0.08 0.18 0.18 l0 2.14 c0 0.1 -0.08 0.18 -0.18 0.18 l-4.32 0 l0 2.72 l3.36 0 c0.1 0 0.16 0.08 0.16 0.18 l0 2.18 c0 0.1 -0.06 0.18 -0.16 0.18 l-3.36 0 l0 2.94 l4.32 0 c0.1 0 0.18 0.08 0.18 0.18 l0 2.14 c0 0.1 -0.08 0.18 -0.18 0.18 l-6.8 0 z M72.68 8.06 l0 10.64 c0 0.12 0.08 0.16 0.16 0.16 l4.6 0 c0.18 0 0.14 -0.24 0 -0.24 l-4.5 0 l0 -5.22 l3.68 0 c0.12 0 0.12 -0.28 0 -0.28 l-3.68 0 l0 -4.96 l4.5 0 c0.14 0 0.18 -0.26 0 -0.26 l-4.6 0 c-0.08 0 -0.16 0.06 -0.16 0.16 z M86.53999999999999 11.9 c1.52 0.72 3.5 1.86 3.5 3.92 c0 0.6 -0.1 1.76 -0.76 2.74 c-0.74 1.1 -1.9 1.64 -3.5 1.64 c-1.7 0 -3.68 -0.82 -4.3 -2.68 c-0.02 -0.06 0 -0.12 0.06 -0.16 l1.84 -1.58 c0.08 -0.06 0.2 -0.06 0.26 0.04 c0.04 0.1 0.12 0.26 0.22 0.46 c0.3 0.62 1.02 1.24 1.82 1.24 c0.62 0 1.46 -0.34 1.46 -1.3 c0 -0.92 -1.26 -1.44 -2.04 -1.74 c-0.9 -0.36 -1.82 -0.82 -2.6 -1.5 c-0.82 -0.76 -1.22 -1.6 -1.22 -2.6 c0 -2.5 2.3 -3.76 4.48 -3.76 c1.72 0 3 0.9 3.84 2.68 c0.04 0.08 0 0.18 -0.06 0.22 l-1.78 1.24 c-0.08 0.04 -0.12 0.04 -0.2 -0.06 c-0.68 -0.98 -1.28 -1.44 -2.08 -1.44 c-0.42 0 -1.4 0.16 -1.4 0.9 c0 0.9 1.66 1.36 2.46 1.74 z M82.89999999999999 17.42 c0.5 1 1.88 1.58 3 1.58 c1.46 0 2.64 -1 2.8 -2.52 c0.2 -1.86 -1.26 -2.66 -2.7 -3.38 l-0.64 -0.28 c-1.48 -0.66 -2.56 -1.16 -2.56 -2.54 c0 -1.52 1.4 -2.22 2.78 -2.22 c1.26 0 1.92 0.74 2.26 1.2 c0.12 0.16 0.32 0.02 0.2 -0.14 c-0.34 -0.42 -1.06 -1.3 -2.46 -1.3 c-1.58 0 -3.02 0.78 -3.02 2.46 c0 1.5 1.2 2.08 2.72 2.78 l0.62 0.3 c1.98 0.94 2.7 1.82 2.54 3.1 c-0.3 2.04 -1.86 2.3 -2.54 2.3 c-1.5 0 -2.5 -0.9 -2.8 -1.46 c-0.1 -0.1 -0.24 0 -0.2 0.12 z M97.53999999999999 11.9 c1.52 0.72 3.5 1.86 3.5 3.92 c0 0.6 -0.1 1.76 -0.76 2.74 c-0.74 1.1 -1.9 1.64 -3.5 1.64 c-1.7 0 -3.68 -0.82 -4.3 -2.68 c-0.02 -0.06 0 -0.12 0.06 -0.16 l1.84 -1.58 c0.08 -0.06 0.2 -0.06 0.26 0.04 c0.04 0.1 0.12 0.26 0.22 0.46 c0.3 0.62 1.02 1.24 1.82 1.24 c0.62 0 1.46 -0.34 1.46 -1.3 c0 -0.92 -1.26 -1.44 -2.04 -1.74 c-0.9 -0.36 -1.82 -0.82 -2.6 -1.5 c-0.82 -0.76 -1.22 -1.6 -1.22 -2.6 c0 -2.5 2.3 -3.76 4.48 -3.76 c1.72 0 3 0.9 3.84 2.68 c0.04 0.08 0 0.18 -0.06 0.22 l-1.78 1.24 c-0.08 0.04 -0.12 0.04 -0.2 -0.06 c-0.68 -0.98 -1.28 -1.44 -2.08 -1.44 c-0.42 0 -1.4 0.16 -1.4 0.9 c0 0.9 1.66 1.36 2.46 1.74 z M93.89999999999999 17.42 c0.5 1 1.88 1.58 3 1.58 c1.46 0 2.64 -1 2.8 -2.52 c0.2 -1.86 -1.26 -2.66 -2.7 -3.38 l-0.64 -0.28 c-1.48 -0.66 -2.56 -1.16 -2.56 -2.54 c0 -1.52 1.4 -2.22 2.78 -2.22 c1.26 0 1.92 0.74 2.26 1.2 c0.12 0.16 0.32 0.02 0.2 -0.14 c-0.34 -0.42 -1.06 -1.3 -2.46 -1.3 c-1.58 0 -3.02 0.78 -3.02 2.46 c0 1.5 1.2 2.08 2.72 2.78 l0.62 0.3 c1.98 0.94 2.7 1.82 2.54 3.1 c-0.3 2.04 -1.86 2.3 -2.54 2.3 c-1.5 0 -2.5 -0.9 -2.8 -1.46 c-0.1 -0.1 -0.24 0 -0.2 0.12 z"></path></g>
			</g>
		</svg>
	